<svg aria-hidden="true" style="position: absolute; width: 0; height: 0; overflow: hidden;" version="1.1" xmlns="http://www.w3.org/2000/svg" xmlns:xlink="http://www.w3.org/1999/xlink">
<defs>
<symbol id="icon-images" viewBox="0 0 20 20">
<path d="M17.125 6.17l-2.046-5.635c-0.151-0.416-0.595-0.637-0.989-0.492l-13.598 4.963c-0.394 0.144-0.593 0.597-0.441 1.013l2.156 5.941v-3.183c0-1.438 1.148-2.607 2.56-2.607h3.593l4.285-3.008 2.479 3.008h2.001zM19.238 8h-14.471c-0.42 0-0.762 0.334-0.762 0.777v9.42c0.001 0.444 0.343 0.803 0.762 0.803h14.471c0.42 0 0.762-0.359 0.762-0.803v-9.42c0-0.443-0.342-0.777-0.762-0.777zM18 17h-12v-2l1.984-4.018 2.768 3.436 2.598-2.662 3.338-1.205 1.312 3.449v3z"></path>
</symbol>
<symbol id="icon-tree" viewBox="0 0 20 20">
<path d="M20 10c0-1.361-0.758-2.616-2.031-3.622-0.002-0.001-0.004-0.001-0.005-0.003-0.362-3.572-3.787-6.375-7.964-6.375s-7.602 2.803-7.964 6.375c-0.001 0.002-0.003 0.002-0.005 0.003-1.273 1.006-2.031 2.261-2.031 3.622 0 3.112 3.947 5.669 9 5.97 0 0.338 0 0.683 0 1.030 0 1-1.821 1.911-1.821 1.911-0.099 0.049-0.148 0.173-0.109 0.277 0 0 0.305 0.812 0.93 0.812s1.124-0.5 2.374-0.5 2.439 0.432 2.439 0.432c0.102 0.038 0.251 0.005 0.329-0.073l0.717-0.717c0.078-0.078 0.058-0.173-0.046-0.212 0 0-1.812-0.68-1.812-1.93 0-0.312 0-0.706 0-1.121 4.564-0.555 7.999-2.976 7.999-5.879zM2 10c0-1.019 0.768-1.945 2.022-2.651-0.010-0.116-0.022-0.232-0.022-0.349 0-2.762 2.687-5 6-5s6 2.238 6 5c0 0.117-0.012 0.233-0.021 0.349 1.253 0.706 2.021 1.632 2.021 2.651 0 1.864-2.551 3.424-5.999 3.869 0-0.401 0-0.668 0-0.668 0-0.11 0.065-0.262 0.145-0.337l1.833-1.726c0.080-0.076 0.146-0.227 0.146-0.337v-0.851c0-0.11-0.078-0.155-0.172-0.099l-1.779 1.047c-0.096 0.056-0.173 0.012-0.173-0.099v-3.599c0-0.11-0.085-0.172-0.19-0.137l-2.621 0.874c-0.104 0.035-0.189 0.153-0.189 0.263v2.6c0 0.11-0.079 0.158-0.177 0.107l-2.022-1.064c-0.097-0.051-0.24-0.030-0.318 0.048l-0.342 0.342c-0.078 0.078-0.073 0.201 0.009 0.273l2.7 2.361c0.083 0.073 0.15 0.222 0.15 0.332 0 0 0 0.298 0 0.765-3.945-0.245-7.001-1.924-7.001-3.964z"></path>
</symbol>
<symbol id="icon-phone" viewBox="0 0 32 32">
<path d="M22 20c-2 2-2 4-4 4s-4-2-6-4-4-4-4-6 2-2 4-4-4-8-6-8-6 6-6 6c0 4 4.109 12.109 8 16s12 8 16 8c0 0 6-4 6-6s-6-8-8-6z"></path>
</symbol>
<symbol id="icon-bubble" viewBox="0 0 32 32">
<path d="M16 2c8.837 0 16 5.82 16 13s-7.163 13-16 13c-0.849 0-1.682-0.054-2.495-0.158-3.437 3.437-7.539 4.053-11.505 4.144v-0.841c2.142-1.049 4-2.961 4-5.145 0-0.305-0.024-0.604-0.068-0.897-3.619-2.383-5.932-6.024-5.932-10.103 0-7.18 7.163-13 16-13z"></path>
</symbol>
<symbol id="icon-user" viewBox="0 0 32 32">
<path d="M18 22.082v-1.649c2.203-1.241 4-4.337 4-7.432 0-4.971 0-9-6-9s-6 4.029-6 9c0 3.096 1.797 6.191 4 7.432v1.649c-6.784 0.555-12 3.888-12 7.918h28c0-4.030-5.216-7.364-12-7.918z"></path>
</symbol>
<symbol id="icon-spinner5" viewBox="0 0 32 32">
<path d="M16 0c-8.837 0-16 7.163-16 16s7.163 16 16 16 16-7.163 16-16-7.163-16-16-16zM16 8c4.418 0 8 3.582 8 8s-3.582 8-8 8-8-3.582-8-8 3.582-8 8-8zM25.546 25.546c-2.55 2.55-5.94 3.954-9.546 3.954s-6.996-1.404-9.546-3.954-3.954-5.94-3.954-9.546c0-3.606 1.404-6.996 3.954-9.546l2.121 2.121c0 0 0 0 0 0-4.094 4.094-4.094 10.755 0 14.849 1.983 1.983 4.62 3.075 7.425 3.075s5.441-1.092 7.425-3.075c4.094-4.094 4.094-10.755 0-14.849l2.121-2.121c2.55 2.55 3.954 5.94 3.954 9.546s-1.404 6.996-3.954 9.546z"></path>
</symbol>
</defs>
</svg>
